<?xml version="1.0" encoding="UTF-8" standalone="no"?>
<!DOCTYPE svg PUBLIC "-//W3C//DTD SVG 1.1//EN"
 "http://www.w3.org/Graphics/SVG/1.1/DTD/svg11.dtd">
<!-- Generated by graphviz version 2.43.0 (0)
 -->
<!-- Title: CCS_LTS Pages: 1 -->
<svg width="467pt" height="397pt"
 viewBox="0.00 0.00 466.60 397.36" xmlns="http://www.w3.org/2000/svg" xmlns:xlink="http://www.w3.org/1999/xlink">
<g id="graph0" class="graph" transform="scale(1 1) rotate(0) translate(28.8 368.56)">
<title>CCS_LTS</title>
<polygon fill="white" stroke="transparent" points="-28.8,28.8 -28.8,-368.56 437.8,-368.56 437.8,28.8 -28.8,28.8"/>
<text text-anchor="middle" x="204.5" y="-324.56" font-family="Helvetica Neue" font-size="14.00">CCS LTS &#160;– &#160;LTS(Q, E) &#160;where &#160;Q = X_{s1} \ {st4}</text>
<text text-anchor="middle" x="204.5" y="-309.56" font-family="Helvetica Neue" font-size="14.00">Equations E from Algorithm 1 (encoding of the Petri net)</text>
<!-- Q0 -->
<g id="node1" class="node">
<title>Q0</title>
<ellipse fill="#ffddaa" stroke="#996633" stroke-width="1.6" cx="204" cy="-275.14" rx="69.1" ry="22.74"/>
<ellipse fill="none" stroke="#996633" stroke-width="1.6" cx="204" cy="-275.14" rx="73.09" ry="26.76"/>
<text text-anchor="middle" x="204" y="-278.34" font-family="Helvetica Neue" font-size="11.00">Q₀</text>
<text text-anchor="middle" x="204" y="-266.34" font-family="Helvetica Neue" font-size="11.00">X_{s1} \ {st4}</text>
</g>
<!-- Q1 -->
<g id="node2" class="node">
<title>Q1</title>
<ellipse fill="#fff4e0" stroke="#996633" stroke-width="1.6" cx="99" cy="-146.88" rx="69.09" ry="22.76"/>
<text text-anchor="middle" x="99" y="-150.08" font-family="Helvetica Neue" font-size="11.00">Q₁</text>
<text text-anchor="middle" x="99" y="-138.08" font-family="Helvetica Neue" font-size="11.00">X_{s2} \ {st4}</text>
</g>
<!-- Q0&#45;&gt;Q1 -->
<g id="edge1" class="edge">
<title>Q0&#45;&gt;Q1</title>
<path fill="none" stroke="#1155aa" stroke-width="1.5" d="M183.51,-249.49C165.87,-228.29 140.45,-197.73 122.1,-175.66"/>
<polygon fill="#1155aa" stroke="#1155aa" stroke-width="1.5" points="124.37,-173.74 116.65,-169.11 119.8,-177.54 124.37,-173.74"/>
<text text-anchor="middle" x="163" y="-205.91" font-family="Helvetica Neue" font-size="12.00" fill="#1155aa"> a </text>
</g>
<!-- Q2 -->
<g id="node3" class="node">
<title>Q2</title>
<ellipse fill="#dddddd" stroke="#996633" stroke-width="1.6" cx="310" cy="-146.88" rx="69.09" ry="22.76"/>
<text text-anchor="middle" x="310" y="-150.08" font-family="Helvetica Neue" font-size="11.00">Q₂</text>
<text text-anchor="middle" x="310" y="-138.08" font-family="Helvetica Neue" font-size="11.00">X_{s3} \ {st4}</text>
</g>
<!-- Q0&#45;&gt;Q2 -->
<g id="edge2" class="edge">
<title>Q0&#45;&gt;Q2</title>
<path fill="none" stroke="#117733" stroke-width="1.5" d="M224.69,-249.49C242.49,-228.29 268.15,-197.73 286.68,-175.66"/>
<polygon fill="#117733" stroke="#117733" stroke-width="1.5" points="288.99,-177.53 292.18,-169.11 284.44,-173.7 288.99,-177.53"/>
<text text-anchor="middle" x="271" y="-205.91" font-family="Helvetica Neue" font-size="12.00" fill="#117733"> b </text>
</g>
<!-- Q3 -->
<g id="node4" class="node">
<title>Q3</title>
<ellipse fill="#dddddd" stroke="#996633" stroke-width="1.6" cx="99" cy="-22.63" rx="69.09" ry="22.76"/>
<text text-anchor="middle" x="99" y="-25.83" font-family="Helvetica Neue" font-size="11.00">Q₃</text>
<text text-anchor="middle" x="99" y="-13.83" font-family="Helvetica Neue" font-size="11.00">X_{s4} \ {st4}</text>
</g>
<!-- Q1&#45;&gt;Q3 -->
<g id="edge3" class="edge">
<title>Q1&#45;&gt;Q3</title>
<path fill="none" stroke="#117733" stroke-width="1.5" d="M99,-124.03C99,-104.47 99,-75.61 99,-53.84"/>
<polygon fill="#117733" stroke="#117733" stroke-width="1.5" points="101.98,-53.79 99,-45.29 96.03,-53.79 101.98,-53.79"/>
<text text-anchor="middle" x="107" y="-81.65" font-family="Helvetica Neue" font-size="12.00" fill="#117733"> b </text>
</g>
</g>
</svg>
